<svg xmlns="http://www.w3.org/2000/svg" width="180" height="44" viewBox="0 0 380 92" fill="none">
  <!-- BiyaHele wordmark with a suitcase + moon pillow icon -->
  <defs>
    <linearGradient id="g" x1="0" y1="0" x2="1" y2="1">
      <stop offset="0%" stop-color="#06b6d4"/>
      <stop offset="100%" stop-color="#6366f1"/>
    </linearGradient>
  </defs>
  <rect rx="18" ry="18" x="8" y="8" width="76" height="76" fill="url(#g)"/>
  <!-- suitcase body -->
  <rect x="26" y="34" width="40" height="32" rx="8" fill="white" opacity="0.95"/>
  <rect x="36" y="26" width="20" height="10" rx="4" fill="white" opacity="0.95"/>
  <!-- crescent pillow -->
  <path d="M58 42c0 9.389-7.611 17-17 17-3.6 0-6.94-1.12-9.68-3.04 2.53 5.86 8.36 9.98 15.18 9.98 9.39 0 17-7.61 17-17 0-4.79-1.98-9.13-5.18-12.26 0.41 1.66 0.68 3.4 0.68 5.32z" fill="#0ea5e9" opacity="0.85"/>

  <!-- BiyaHele text -->
  <g transform="translate(98,20)" fill="#0f172a">
    <path d="M0 50V4h22.5c9.8 0 15.8 5 15.8 12.8 0 5.6-3.1 9.6-8.7 11.4 6.4 1.5 10.4 6 10.4 12.8C40 47 33.4 50 23 50H0zm12-29.6h10.1c4.6 0 7.1-1.9 7.1-5.3 0-3.2-2.3-5.1-6.9-5.1H12v10.4zm0 20.1h11.2c5.5 0 8.5-2 8.5-5.8 0-3.8-3-5.8-8.5-5.8H12v11.6z"/>
    <path d="M56 50L41.7 15.3h12.4l7.8 21.7 7.9-21.7h11.9L67.4 50H56z"/>
    <path d="M104 50V26.4h-6.9V15.3H104V6.8h11.8v8.5h9.5v11.1h-9.5V50H104z"/>
    <path d="M130.5 50V15.3h11.8V50h-11.8z"/>
    <path d="M151.5 50V15.3h11.2l0.4 5.1c2.9-3.9 7.1-6.1 12.7-6.1 10 0 17.2 7.6 17.2 18.9 0 11.7-7.5 19.8-18 19.8-4.9 0-8.6-1.6-11.4-4.8V50h-12.1zm28.7-9.5c5.5 0 9.3-4.2 9.3-10.6 0-6.1-3.7-10.2-9.1-10.2-5.7 0-9.5 4.3-9.5 10.6 0 6.2 3.8 10.2 9.3 10.2z"/>
    <path d="M217.5 50V4h11.8v46h-11.8z"/>
    <path d="M238.5 50V15.3h11.2l0.4 5.1c2.9-3.9 7.1-6.1 12.7-6.1 10 0 17.2 7.6 17.2 18.9 0 11.7-7.5 19.8-18 19.8-4.9 0-8.6-1.6-11.4-4.8V50h-12.1zm28.7-9.5c5.5 0 9.3-4.2 9.3-10.6 0-6.1-3.7-10.2-9.1-10.2-5.7 0-9.5 4.3-9.5 10.6 0 6.2 3.8 10.2 9.3 10.2z"/>
  </g>
</svg>



